<svg xmlns="http://www.w3.org/2000/svg"  viewBox="0 0 48 48" width="48px" height="48px"><linearGradient id="SVGID_1_" x1="38.439" x2="9.561" y1="9.561" y2="38.438" gradientUnits="userSpaceOnUse"><stop offset="0" stop-color="#fe60c1"/><stop offset=".033" stop-color="#fe6ac5"/><stop offset=".197" stop-color="#fe97d7"/><stop offset=".362" stop-color="#ffbde5"/><stop offset=".525" stop-color="#ffdaf0"/><stop offset=".687" stop-color="#ffeef9"/><stop offset=".846" stop-color="#fffbfd"/><stop offset="1" stop-color="#fff"/></linearGradient><path fill="url(#SVGID_1_)" d="M33.331,41.169l-8.747-6.298c-0.349-0.251-0.82-0.251-1.169,0l-8.747,6.298	c-1.323,0.953-3.169,0.007-3.169-1.623V8.45c0-1.105,0.895-2,2-2h21c1.105,0,2,0.895,2,2v31.096	C36.5,41.176,34.654,42.122,33.331,41.169z"/><path fill="none" stroke="#fa2aab" stroke-linecap="round" stroke-linejoin="round" stroke-miterlimit="10" stroke-width="3" d="M27.334,36.851l-2.75-1.98c-0.349-0.251-0.82-0.251-1.169,0l-8.747,6.298	c-1.323,0.953-3.169,0.007-3.169-1.623V22.34"/><path fill="none" stroke="#fa2aab" stroke-linecap="round" stroke-linejoin="round" stroke-miterlimit="10" stroke-width="3" d="M11.5,16.404V8.45c0-1.105,0.895-2,2-2h21c1.105,0,2,0.895,2,2v31.096c0,1.63-1.846,2.576-3.169,1.623	l-1.965-1.397"/></svg>